<?xml version="1.0" encoding="UTF-8"?>
<!DOCTYPE svg PUBLIC "-//W3C//DTD SVG 1.1//EN" "http://www.w3.org/Graphics/SVG/1.1/DTD/svg11.dtd">
<!-- Creator: CorelDRAW X7 -->
<svg xmlns="http://www.w3.org/2000/svg" xml:space="preserve" width="180mm" height="45mm" version="1.1" style="shape-rendering:geometricPrecision; text-rendering:geometricPrecision; image-rendering:optimizeQuality; fill-rule:evenodd; clip-rule:evenodd"
viewBox="0 0 18000 4500"
 xmlns:xlink="http://www.w3.org/1999/xlink">
 <defs>
  <style type="text/css">
   <![CDATA[
    .str0 {stroke:white;stroke-width:7.62}
    .fil2 {fill:#070908}
    .fil1 {fill:#333333}
    .fil0 {fill:#404040;fill-rule:nonzero}
   ]]>
  </style>
 </defs>
 <g id="Capa_x0020_1">
  <metadata id="CorelCorpID_0Corel-Layer"/>
  <g>
   <path class="fil0" d="M1580 1213c7,-5 24,-28 53,-70 19,-27 43,-41 74,-41 7,0 36,4 87,11 10,10 18,32 22,65l84 525c4,28 6,45 6,50 0,20 -5,33 -16,39 -11,6 -39,9 -86,9 -52,0 -86,-7 -102,-20 -15,-13 -45,-69 -88,-167 -91,-207 -173,-310 -246,-310 -51,0 -77,35 -77,108 0,90 78,265 233,528 179,304 294,523 349,658 54,136 81,288 81,456 0,199 -47,351 -141,457 -93,106 -199,160 -316,160 -74,0 -145,-22 -214,-64 -27,-17 -48,-25 -63,-25 -14,0 -25,9 -33,29 -17,40 -57,60 -120,60 -25,0 -42,-4 -50,-12 -9,-8 -16,-28 -20,-61l-77 -516c-10,-66 -15,-101 -15,-105 0,-30 27,-45 82,-45 73,0 117,10 130,30 14,19 33,64 57,134 90,250 181,375 273,375 33,0 61,-12 82,-37 21,-25 32,-56 32,-93 0,-65 -24,-142 -71,-231 -46,-89 -104,-188 -171,-298 -163,-262 -277,-471 -345,-626 -67,-157 -101,-316 -101,-479 0,-184 40,-330 120,-439 81,-110 179,-164 295,-164 81,0 178,36 292,109z"/>
   <path id="1" class="fil1" d="M1575 1181l3 -4c8,-10 19,-26 35,-48l0 0c11,-17 24,-29 40,-38 16,-9 34,-14 54,-14 4,0 14,1 30,3 17,3 37,5 60,9l8 1 6 6c8,7 14,19 20,33 4,13 7,28 10,46l0 0 83 524 0 1c2,11 4,23 5,34 1,9 2,16 2,19 0,13 -2,25 -6,34 -5,12 -12,20 -23,26l0 0c-8,5 -21,8 -39,10 -15,2 -35,3 -59,3 -27,0 -51,-2 -69,-5 -22,-5 -38,-12 -49,-21 -10,-9 -23,-29 -39,-59 -16,-29 -34,-68 -56,-117 -45,-102 -87,-177 -126,-227 -36,-46 -68,-68 -97,-68 -17,0 -29,5 -37,16 -10,14 -15,36 -15,67 0,85 77,257 230,516l0 0c89,151 162,282 220,391 59,111 102,201 130,270l0 0c28,70 48,143 62,220 14,78 21,159 21,245 0,102 -13,192 -37,271 -24,79 -61,147 -110,203 -49,55 -101,97 -157,125 -56,28 -115,43 -178,43 -39,0 -78,-6 -116,-17 -38,-12 -75,-29 -111,-51l0 0c-12,-8 -23,-13 -32,-17 -7,-3 -14,-4 -18,-4 -1,0 -2,0 -2,1 -3,2 -5,6 -8,13l0 0c-11,26 -29,45 -54,57 -24,12 -54,18 -89,18 -14,0 -27,-2 -37,-4l0 0c-13,-3 -23,-8 -30,-15l0 0c-8,-7 -14,-17 -19,-32 -3,-11 -6,-26 -8,-44l-1 0 -77 -515 0 0c-4,-31 -8,-56 -11,-76 -3,-19 -4,-30 -4,-33 0,-25 11,-43 33,-55 18,-10 42,-15 74,-15 38,0 69,3 93,8 28,7 47,18 58,33l0 0c8,11 17,29 27,53 9,22 20,51 33,86l0 0c44,123 88,215 132,276 41,55 79,83 117,83 13,0 25,-2 35,-7 11,-5 20,-12 28,-21 8,-10 15,-21 19,-34 4,-13 7,-27 7,-43 0,-30 -6,-64 -17,-100 -11,-36 -28,-76 -51,-120l0 0c-22,-43 -48,-90 -77,-140 -29,-50 -60,-102 -93,-155l0 0c-81,-131 -151,-249 -208,-353 -58,-105 -104,-198 -139,-278l0 0c-34,-79 -60,-160 -77,-242 -17,-81 -26,-163 -26,-246 0,-94 10,-179 31,-254 21,-76 52,-143 94,-200 43,-58 90,-101 142,-130 53,-29 111,-44 173,-44 81,0 177,34 287,102zm219 -68c10,10 18,32 22,65l84 525c4,28 6,45 6,50 0,20 -5,33 -16,39 -11,6 -39,9 -86,9 -52,0 -86,-7 -102,-20 -15,-13 -45,-69 -88,-167 -91,-207 -173,-310 -246,-310 -51,0 -77,35 -77,108 0,90 78,265 233,528 179,304 294,523 349,658 54,136 81,288 81,456 0,199 -47,351 -141,457 -93,106 -199,160 -316,160 -74,0 -145,-22 -214,-64 -27,-17 -48,-25 -63,-25 -14,0 -25,9 -33,29 -17,40 -57,60 -120,60 -25,0 -42,-4 -50,-12 -9,-8 -16,-28 -20,-61l-77 -516c-10,-66 -15,-101 -15,-105 0,-30 27,-45 82,-45 73,0 117,10 130,30 14,19 33,64 57,134 90,250 181,375 273,375 33,0 61,-12 82,-37 21,-25 32,-56 32,-93 0,-65 -24,-142 -71,-231 -46,-89 -104,-188 -171,-298 -163,-262 -277,-471 -345,-626 -67,-157 -101,-316 -101,-479 0,-184 40,-330 120,-439 81,-110 179,-164 295,-164 81,0 178,36 292,109 7,-5 24,-28 53,-70 19,-27 43,-41 74,-41 7,0 36,4 87,11z"/>
  </g>
  <g>
   <path id="2" class="fil0" d="M2648 2555l0 632c0,84 16,150 48,197 33,47 75,71 125,71 79,0 142,-33 189,-100 47,-67 72,-158 75,-273 1,-63 7,-100 18,-112 10,-12 48,-19 113,-19 56,0 91,6 106,17 15,12 23,40 23,86 0,159 -52,300 -155,424 -104,124 -240,186 -411,186 -195,0 -361,-89 -497,-265 -137,-177 -205,-444 -205,-800 0,-356 63,-627 189,-813 126,-187 292,-280 496,-280 175,0 316,79 423,236 106,157 160,380 160,669l0 144 -697 0zm212 -196l0 -511c0,-97 -35,-145 -105,-145 -72,0 -107,48 -107,145l0 511 212 0z"/>
   <path id="3" class="fil1" d="M2673 2580l0 607c0,40 3,76 11,106 7,30 18,56 33,77l0 0c14,20 30,36 47,46 17,9 36,14 57,14 70,0 126,-30 168,-89l0 0c22,-31 39,-68 51,-111 12,-43 18,-93 20,-149l0 0c0,-32 2,-58 5,-78 4,-23 10,-40 19,-50l0 0c9,-10 26,-18 51,-22 21,-3 48,-5 81,-5 29,0 53,2 72,5 22,3 38,9 49,17l0 0c12,10 21,24 26,44 4,16 7,37 7,62 0,82 -14,160 -41,233 -26,74 -67,143 -120,207l0 0c-54,65 -117,114 -189,147 -72,32 -152,48 -241,48 -102,0 -196,-23 -283,-69 -86,-46 -164,-115 -234,-206 -70,-91 -123,-205 -158,-342 -35,-135 -52,-293 -52,-473 0,-180 16,-338 48,-476 32,-138 81,-255 146,-351 65,-97 141,-169 227,-218 86,-48 183,-73 289,-73 92,0 175,21 249,62 74,42 139,103 195,185l0 0c55,81 96,179 123,293 27,114 41,244 41,390l0 144 0 25 -25 0 -672 0zm649 388c15,12 23,40 23,86 0,159 -52,300 -155,424 -104,124 -240,186 -411,186 -195,0 -361,-89 -497,-265 -137,-177 -205,-444 -205,-800 0,-356 63,-627 189,-813 126,-187 292,-280 496,-280 175,0 316,79 423,236 106,157 160,380 160,669l0 144 -697 0 0 632c0,84 16,150 48,197 33,47 75,71 125,71 79,0 142,-33 189,-100 47,-67 72,-158 75,-273 1,-63 7,-100 18,-112 10,-12 48,-19 113,-19 56,0 91,6 106,17zm-462 -609l0 -511c0,-97 -35,-145 -105,-145 -72,0 -107,48 -107,145l0 511 212 0zm-25 -25l0 -486c0,-43 -7,-74 -22,-94 -12,-18 -32,-26 -58,-26 -28,0 -48,9 -61,26 -14,20 -21,51 -21,94l0 486 162 0z"/>
  </g>
  <g>
   <path id="4" class="fil0" d="M4082 1737c124,-154 265,-231 423,-231 108,0 191,35 249,105 57,70 86,157 86,262l0 1483c0,33 12,58 38,76 23,14 35,51 35,111 0,47 -4,76 -12,85 -7,9 -24,14 -49,14l-433 0c-62,-53 -93,-121 -93,-206l0 -1473c0,-81 -33,-121 -101,-121 -43,0 -91,23 -143,68l0 1446c0,37 18,66 54,86 21,13 32,36 32,69l0 79c0,35 -25,52 -76,52l-547 0c-27,0 -44,-4 -51,-12 -7,-8 -11,-27 -11,-58l0 -57c0,-30 9,-51 28,-63 24,-18 40,-34 47,-50 7,-15 11,-49 11,-102l0 -1512c0,-36 -17,-62 -53,-79 -19,-9 -29,-26 -29,-49l0 -83c0,-33 14,-48 43,-48l504 0c22,0 36,3 40,9 6,6 8,19 8,38l0 161z"/>
   <path id="5" class="fil1" d="M4107 1670c51,-54 105,-97 162,-128 74,-40 153,-61 236,-61 57,0 108,10 153,29 45,19 84,47 115,85 31,37 54,79 69,126 15,46 23,97 23,152l0 1483c0,13 2,24 6,33l1 0c4,8 10,16 19,22 17,10 29,28 37,52 6,21 10,48 10,80 0,25 -2,45 -4,60 -2,19 -7,33 -14,41l0 0c-7,9 -17,15 -30,19 -11,2 -23,4 -38,4l-433 0 -9 0 -7 -6c-34,-29 -59,-62 -76,-100 -17,-38 -26,-79 -26,-125l0 -1473c0,-34 -6,-59 -19,-75l0 1c-12,-15 -31,-22 -57,-22 -18,0 -37,5 -58,15 -19,9 -39,22 -60,40l0 1434c0,14 4,26 10,36 7,11 17,21 31,29l0 0c16,9 27,21 34,37 7,15 11,33 11,53l0 79c0,26 -10,46 -30,59 -17,12 -40,18 -71,18l-547 0c-15,0 -28,-1 -38,-4l0 0c-14,-3 -24,-8 -31,-16l-1 0c-6,-8 -11,-18 -13,-33 -2,-11 -4,-25 -4,-42l0 -57c0,-18 3,-34 9,-48 7,-15 16,-27 29,-35l0 0c11,-8 20,-16 27,-23 6,-6 10,-12 13,-17 2,-5 4,-15 6,-30 1,-15 2,-36 2,-62l0 -1512c0,-13 -3,-24 -9,-33 -6,-9 -16,-17 -29,-23l-1 0c-14,-7 -25,-17 -32,-30 -8,-12 -11,-26 -11,-42l0 -83c0,-23 5,-40 17,-53 12,-14 29,-20 51,-20l504 0c13,0 23,1 32,3l0 0c13,2 22,7 28,15l0 0c5,6 9,14 11,25 1,8 2,18 2,29l0 94zm-25 67c124,-154 265,-231 423,-231 108,0 191,35 249,105 57,70 86,157 86,262l0 1483c0,33 12,58 38,76 23,14 35,51 35,111 0,47 -4,76 -12,85 -7,9 -24,14 -49,14l-433 0c-62,-53 -93,-121 -93,-206l0 -1473c0,-81 -33,-121 -101,-121 -43,0 -91,23 -143,68l0 1446c0,37 18,66 54,86 21,13 32,36 32,69l0 79c0,35 -25,52 -76,52l-547 0c-27,0 -44,-4 -51,-12 -7,-8 -11,-27 -11,-58l0 -57c0,-30 9,-51 28,-63 24,-18 40,-34 47,-50 7,-15 11,-49 11,-102l0 -1512c0,-36 -17,-62 -53,-79 -19,-9 -29,-26 -29,-49l0 -83c0,-33 14,-48 43,-48l504 0c22,0 36,3 40,9 6,6 8,19 8,38l0 161z"/>
  </g>
  <g>
   <path id="6" class="fil0" d="M5475 1088c117,0 175,39 175,118 0,62 -39,114 -117,157 -78,43 -166,64 -265,64 -128,0 -192,-43 -192,-128 0,-68 45,-121 135,-156 89,-37 177,-55 264,-55zm-427 595l0 -103c0,-35 20,-51 61,-51l488 0c35,0 53,16 53,51l0 1779c0,25 1,41 5,47 2,8 11,15 26,21 36,14 54,47 54,96 0,57 -2,90 -7,102 -5,11 -22,17 -49,17l-594 0c-15,-2 -24,-8 -28,-20 -4,-10 -6,-39 -6,-85 0,-56 13,-88 38,-98 32,-11 47,-31 47,-62l0 -1541c0,-59 -20,-96 -62,-108 -17,-5 -26,-20 -26,-45z"/>
   <path id="7" class="fil1" d="M5475 1063c63,0 112,11 145,34l0 0c37,24 55,61 55,109 0,36 -12,70 -34,100 -22,29 -54,55 -96,79 -41,22 -84,39 -131,50 -46,11 -95,17 -146,17 -69,0 -121,-12 -158,-36 -39,-27 -59,-66 -59,-117 0,-79 50,-140 151,-180l0 0c46,-18 91,-32 137,-42 46,-9 91,-14 136,-14zm0 25c117,0 175,39 175,118 0,62 -39,114 -117,157 -78,43 -166,64 -265,64 -128,0 -192,-43 -192,-128 0,-68 45,-121 135,-156 89,-37 177,-55 264,-55zm-427 595l0 -103c0,-35 20,-51 61,-51l488 0c35,0 53,16 53,51l0 1779c0,25 1,41 5,47 2,8 11,15 26,21 36,14 54,47 54,96 0,57 -2,90 -7,102 -5,11 -22,17 -49,17l-594 0c-15,-2 -24,-8 -28,-20 -4,-10 -6,-39 -6,-85 0,-56 13,-88 38,-98 32,-11 47,-31 47,-62l0 -1541c0,-59 -20,-96 -62,-108 -17,-5 -26,-20 -26,-45zm-25 0l0 -103c0,-25 8,-44 24,-58 15,-12 36,-18 62,-18l488 0c25,0 43,6 57,19l0 0c14,14 21,33 21,57l0 1779c0,12 0,21 1,28 0,5 1,8 1,9l1 1 0 1 0 0c0,-1 0,-1 0,-1 3,2 7,5 13,7l0 0c23,9 41,25 53,45 11,20 16,45 16,74 0,28 0,51 -2,69 -1,20 -4,34 -7,42l-1 2c-5,12 -15,20 -30,25 -11,4 -25,6 -41,6l-594 0 -2 0 -2 0c-11,-2 -21,-6 -29,-11 -8,-7 -15,-15 -18,-26l0 0c-3,-7 -5,-19 -6,-35 -2,-15 -2,-35 -2,-58 0,-31 4,-56 11,-75l0 -1c9,-23 24,-38 44,-45l0 0c11,-4 19,-9 24,-16l0 0c4,-5 6,-13 6,-23l0 -1541c0,-25 -4,-45 -12,-59 -7,-12 -17,-21 -32,-25l0 0c-15,-5 -26,-13 -34,-26 -7,-12 -10,-26 -10,-43zm655 1715l0 0c0,1 0,0 0,0l0 0z"/>
  </g>
  <g>
   <path id="8" class="fil0" d="M6551 1506c194,0 356,88 486,261 130,174 195,432 195,775 0,370 -66,649 -198,838 -132,190 -297,284 -494,284 -136,0 -254,-43 -355,-130 -100,-86 -177,-202 -231,-347 -54,-144 -81,-342 -81,-592 0,-359 62,-629 186,-813 125,-184 288,-276 492,-276zm111 389c0,-128 -37,-192 -111,-192 -81,0 -121,78 -121,235l0 1286c0,156 37,234 110,234 81,0 122,-78 122,-234l0 -1329z"/>
   <path id="9" class="fil1" d="M6551 1481c101,0 194,23 279,69 84,45 160,112 227,202l0 0c67,90 117,201 150,333 33,131 50,284 50,457 0,375 -68,659 -203,852l0 0c-68,98 -144,171 -230,221 -86,49 -181,74 -284,74 -71,0 -137,-11 -199,-34 -62,-23 -120,-57 -172,-102 -52,-45 -98,-97 -138,-157l0 0c-39,-59 -73,-126 -100,-200l0 0c-28,-74 -49,-161 -63,-261 -14,-101 -20,-214 -20,-340 0,-181 15,-340 47,-478 32,-138 80,-255 143,-349l0 0c65,-95 140,-167 225,-214 86,-49 182,-73 288,-73zm0 25c194,0 356,88 486,261 130,174 195,432 195,775 0,370 -66,649 -198,838 -132,190 -297,284 -494,284 -136,0 -254,-43 -355,-130 -100,-86 -177,-202 -231,-347 -54,-144 -81,-342 -81,-592 0,-359 62,-629 186,-813 125,-184 288,-276 492,-276zm-11 1952c81,0 122,-78 122,-234l0 -1329c0,-128 -37,-192 -111,-192 -81,0 -121,78 -121,235l0 1286c0,156 37,234 110,234zm97 -1563c0,-60 -9,-104 -25,-132 -13,-23 -34,-35 -61,-35 -30,0 -53,15 -68,45 -19,35 -28,90 -28,165l0 1286c0,139 28,209 85,209 30,0 53,-15 69,-45 18,-35 28,-90 28,-164l0 -1329z"/>
  </g>
  <g>
   <path id="10" class="fil0" d="M7932 1940c12,-24 28,-68 45,-130 39,-134 78,-219 115,-252 38,-35 79,-52 125,-52 62,0 109,30 140,89 31,58 47,132 47,221 0,190 -54,286 -161,286 -54,0 -95,-32 -123,-94 -18,-37 -36,-55 -55,-55 -46,0 -69,51 -69,153l0 1237c0,40 18,68 53,87 36,18 54,46 54,85l0 70c0,24 -2,40 -8,47 -6,7 -22,10 -49,10l-583 0c-40,0 -60,-19 -60,-57l0 -86c0,-28 9,-47 26,-57 36,-17 53,-44 53,-80l0 -1558c0,-35 -12,-61 -37,-76 -26,-15 -41,-27 -45,-36 -4,-9 -6,-36 -6,-80 0,-37 5,-60 16,-70 10,-9 29,-13 54,-13l418 0c19,0 32,5 40,16 7,10 10,37 10,78l0 317z"/>
   <path id="11" class="fil1" d="M7400 1692c-4,-9 -6,-36 -6,-80 0,-37 5,-60 16,-70 10,-9 29,-13 54,-13l418 0c19,0 32,5 40,16 7,10 10,37 10,78l0 317c12,-24 28,-68 45,-130 39,-134 78,-219 115,-252 38,-35 79,-52 125,-52 62,0 109,30 140,89 31,58 47,132 47,221 0,190 -54,286 -161,286 -54,0 -95,-32 -123,-94 -18,-37 -36,-55 -55,-55 -46,0 -69,51 -69,153l0 1237c0,40 18,68 53,87 36,18 54,46 54,85l0 70c0,24 -2,40 -8,47 -6,7 -22,10 -49,10l-583 0c-40,0 -60,-19 -60,-57l0 -86c0,-28 9,-47 26,-57 36,-17 53,-44 53,-80l0 -1558c0,-35 -12,-61 -37,-76 -26,-15 -41,-27 -45,-36zm557 97c19,-62 37,-113 56,-153 20,-45 41,-78 63,-97l0 0c21,-19 43,-33 66,-43 24,-10 49,-15 75,-15 36,0 67,9 95,26 27,17 49,43 67,76l0 0c17,31 30,67 38,106 8,39 12,81 12,127 0,99 -14,175 -43,227 -32,56 -79,84 -143,84 -32,0 -61,-10 -86,-29 -24,-18 -44,-45 -60,-80 -8,-16 -15,-27 -22,-34l0 0c-4,-4 -7,-6 -10,-6 -12,0 -22,8 -29,24l0 0c-10,22 -15,57 -15,104l0 1237c0,15 3,28 9,38l0 0c7,11 17,20 31,27 22,11 39,25 50,43 12,18 17,40 17,64l0 70c0,14 0,25 -2,34 -2,13 -6,22 -12,29 -7,8 -17,13 -31,16 -10,2 -22,3 -37,3l-583 0c-57,0 -85,-27 -85,-82l0 -86c0,-17 3,-33 9,-46 7,-14 17,-25 31,-32l0 -1c14,-7 24,-15 30,-24 6,-10 9,-21 9,-34l0 -1558c0,-14 -2,-25 -6,-34 -4,-9 -10,-15 -18,-20l0 0c-14,-8 -26,-16 -34,-23l-1 0c-10,-9 -18,-17 -21,-26 -3,-7 -6,-18 -7,-34 -1,-14 -1,-32 -1,-55 0,-20 1,-37 4,-51l0 0c4,-17 11,-29 21,-38l0 0c8,-7 19,-12 32,-15 11,-3 24,-4 38,-4l418 0c12,0 24,1 34,5 11,5 20,12 26,22l1 0c5,9 9,22 11,38 2,15 3,33 3,54l0 166z"/>
  </g>
  <g>
   <path id="12" class="fil0" d="M10690 1213c7,-5 24,-28 53,-70 19,-27 43,-41 74,-41 7,0 36,4 87,11 10,10 18,32 22,65l84 525c4,28 6,45 6,50 0,20 -5,33 -16,39 -11,6 -39,9 -86,9 -52,0 -86,-7 -102,-20 -15,-13 -45,-69 -88,-167 -91,-207 -173,-310 -245,-310 -52,0 -78,35 -78,108 0,90 78,265 233,528 179,304 295,523 349,658 54,136 81,288 81,456 0,199 -47,351 -141,457 -93,106 -199,160 -316,160 -74,0 -145,-22 -214,-64 -27,-17 -48,-25 -63,-25 -14,0 -25,9 -33,29 -16,40 -57,60 -120,60 -25,0 -42,-4 -50,-12 -9,-8 -15,-28 -20,-61l-77 -516c-10,-66 -15,-101 -15,-105 0,-30 27,-45 82,-45 73,0 117,10 130,30 14,19 33,64 57,134 91,250 181,375 273,375 34,0 61,-12 82,-37 21,-25 32,-56 32,-93 0,-65 -23,-142 -70,-231 -47,-89 -104,-188 -172,-298 -163,-262 -277,-471 -345,-626 -67,-157 -101,-316 -101,-479 0,-184 40,-330 121,-439 80,-110 178,-164 294,-164 81,0 178,36 292,109z"/>
   <path id="13" class="fil1" d="M10685 1181l3 -4c8,-10 19,-26 35,-48l0 0c11,-17 25,-29 40,-38 16,-9 34,-14 54,-14 4,0 14,1 30,3 17,3 37,5 60,9l9 1 5 6c8,7 15,19 20,33 4,13 8,28 10,46l0 0 83 524 1 1c1,12 3,23 4,34 2,9 2,16 2,19 0,13 -2,25 -6,34 -5,12 -12,20 -22,26l0 0c-9,5 -22,8 -40,10 -15,2 -35,3 -59,3 -27,0 -51,-2 -69,-5 -22,-5 -38,-12 -49,-21 -10,-9 -23,-29 -39,-59 -15,-29 -34,-68 -56,-117 -45,-102 -87,-177 -126,-227 -36,-46 -68,-68 -96,-68 -18,0 -30,5 -38,16 -10,14 -15,36 -15,67 0,85 77,257 230,516l0 0c89,151 162,282 220,391 59,111 102,201 130,270l0 0c28,70 48,143 62,220 14,78 21,159 21,245 0,102 -12,192 -37,271 -24,79 -61,147 -110,203 -49,55 -101,97 -157,125 -56,28 -115,43 -178,43 -39,0 -78,-6 -116,-17 -38,-12 -75,-29 -111,-51l0 0c-12,-8 -23,-13 -32,-17 -7,-3 -14,-4 -18,-4 -1,0 -1,0 -2,1 -3,2 -5,6 -8,13l0 0c-11,25 -29,45 -54,57 -24,12 -53,18 -89,18 -14,0 -26,-2 -37,-4l0 0c-12,-3 -23,-8 -30,-15l0 0c-8,-7 -14,-17 -18,-32 -4,-11 -7,-26 -9,-44l0 0 -77 -515 0 0c-5,-31 -9,-55 -12,-76 -3,-19 -4,-30 -4,-33 0,-25 11,-43 34,-55 17,-10 41,-15 73,-15 38,0 69,3 93,8 28,7 48,18 58,33l0 0c8,11 17,29 27,53 9,22 20,51 33,86l0 0c44,123 88,215 132,276 41,55 80,83 117,83 13,0 25,-2 36,-7 10,-5 19,-12 27,-21 9,-10 15,-21 19,-34 5,-13 7,-27 7,-43 0,-30 -6,-64 -17,-100 -11,-36 -28,-76 -50,-120l0 0c-23,-43 -49,-90 -78,-140 -29,-50 -60,-102 -93,-155l0 0c-81,-131 -151,-249 -208,-353 -58,-105 -104,-198 -139,-278l0 0c-34,-79 -60,-160 -77,-242 -17,-81 -26,-163 -26,-246 0,-94 11,-179 31,-254 21,-76 53,-143 95,-200 42,-58 89,-101 141,-130 53,-29 111,-44 173,-44 81,0 177,34 287,102zm219 -68c10,10 18,32 22,65l84 525c4,28 6,45 6,50 0,20 -5,33 -16,39 -11,6 -39,9 -86,9 -52,0 -86,-7 -102,-20 -15,-13 -45,-69 -88,-167 -91,-207 -173,-310 -245,-310 -52,0 -78,35 -78,108 0,90 78,265 233,528 179,304 295,523 349,658 54,136 81,288 81,456 0,199 -47,351 -141,457 -93,106 -199,160 -316,160 -74,0 -145,-22 -214,-64 -27,-17 -48,-25 -63,-25 -14,0 -25,9 -33,29 -16,40 -57,60 -120,60 -25,0 -42,-4 -50,-12 -9,-8 -15,-28 -20,-61l-77 -516c-10,-66 -15,-101 -15,-105 0,-30 27,-45 82,-45 73,0 117,10 130,30 14,19 33,64 57,134 91,250 181,375 273,375 34,0 61,-12 82,-37 21,-25 32,-56 32,-93 0,-65 -23,-142 -70,-231 -47,-89 -104,-188 -172,-298 -163,-262 -277,-471 -345,-626 -67,-157 -101,-316 -101,-479 0,-184 40,-330 121,-439 80,-110 178,-164 294,-164 81,0 178,36 292,109 7,-5 24,-28 53,-70 19,-27 43,-41 74,-41 7,0 36,4 87,11z"/>
  </g>
  <g>
   <path id="14" class="fil0" d="M11257 1741l-61 0c-18,0 -29,-2 -34,-6 -4,-5 -6,-16 -6,-34l0 -112c0,-20 2,-34 6,-40 5,-6 19,-11 42,-14 74,-11 149,-52 224,-124 76,-70 121,-147 135,-228 5,-29 11,-46 19,-53 8,-7 24,-10 47,-10l101 0c27,0 40,18 40,54l0 355 95 0c36,0 54,17 54,51l0 111c0,33 -18,50 -54,50l-95 0 0 1603c0,55 25,94 73,117 24,11 39,26 47,42 7,16 10,47 10,89 0,27 -1,42 -5,45 -4,3 -16,5 -38,5l-489 0c-74,-66 -111,-165 -111,-298l0 -1603z"/>
   <path id="15" class="fil1" d="M11232 1766l-36 0c-10,0 -19,-1 -26,-2 -10,-2 -18,-6 -24,-11l0 0c-7,-6 -11,-14 -13,-25 -2,-7 -2,-16 -2,-27l0 -112c0,-11 0,-21 2,-29 1,-11 5,-20 9,-26l1 -1c5,-7 14,-12 26,-16l0 0c8,-3 18,-5 31,-7l0 0c34,-5 69,-17 103,-36 36,-20 72,-47 108,-81 36,-34 65,-68 86,-104 21,-36 35,-72 41,-110l0 0c3,-16 6,-29 10,-39l0 0c5,-13 10,-22 17,-28l0 0c7,-7 17,-12 30,-14 9,-2 21,-3 34,-3l101 0c22,0 39,8 50,23 10,14 15,32 15,56l0 330 70 0c25,0 44,6 58,19 14,14 21,33 21,57l0 111c0,24 -7,43 -21,56 -14,13 -33,19 -58,19l-70 0 0 1578c0,22 5,42 15,57 9,16 24,28 44,38l0 0c14,6 25,14 35,22l0 1c10,9 18,20 23,31l1 1c4,10 7,24 9,41 2,16 3,35 3,57 0,15 0,26 -1,35 -2,14 -6,23 -13,29 -5,5 -14,8 -25,10l0 0c-8,1 -18,1 -29,1l-489 0 -9 0 -7 -6c-40,-36 -71,-81 -91,-134 -19,-53 -29,-114 -29,-183l0 -1578zm25 -25l-61 0c-18,0 -29,-2 -34,-6 -4,-5 -6,-16 -6,-34l0 -112c0,-20 2,-34 6,-40 5,-6 19,-11 42,-14 74,-11 149,-52 224,-124 76,-70 121,-147 135,-228 5,-29 11,-46 19,-53 8,-7 24,-10 47,-10l101 0c27,0 40,18 40,54l0 355 95 0c36,0 54,17 54,51l0 111c0,33 -18,50 -54,50l-95 0 0 1603c0,55 25,94 73,117 24,11 39,26 47,42 7,16 10,47 10,89 0,27 -1,42 -5,45 -4,3 -16,5 -38,5l-489 0c-74,-66 -111,-165 -111,-298l0 -1603z"/>
  </g>
  <g>
   <path id="16" class="fil0" d="M12116 1764c-13,-6 -23,-10 -30,-14 -24,-11 -40,-22 -46,-33 -7,-10 -10,-33 -10,-67 0,-18 0,-34 -1,-46 0,-31 4,-51 13,-61 8,-10 28,-14 57,-14l479 0c24,0 38,3 43,11 5,7 8,24 8,52l0 1524c0,133 37,200 110,200 56,0 99,-24 128,-72l0 -1432c0,-37 -18,-66 -55,-86 -18,-11 -28,-22 -32,-34 -4,-11 -5,-51 -5,-119 0,-30 17,-44 53,-44l506 0c21,0 34,3 39,9 5,6 7,23 7,49l0 1775c0,34 14,58 41,71 34,18 51,49 51,92 0,62 -2,96 -7,105 -5,8 -21,12 -49,12l-471 0c-29,0 -50,-5 -61,-16 -12,-11 -17,-35 -17,-71l0 -38c0,-41 -1,-65 -2,-70 -164,145 -303,217 -417,217 -96,0 -176,-33 -239,-98 -62,-64 -93,-190 -93,-376l0 -1426z"/>
   <path id="17" class="fil1" d="M12091 1780l-5 -2 -1 0 -9 -5 0 0c-29,-13 -49,-28 -58,-44l0 0c-5,-8 -8,-19 -10,-33l0 0c-2,-13 -3,-28 -3,-46 0,-11 0,-19 0,-24l0 -1c0,-6 -1,-12 -1,-19l0 -2c0,-17 1,-31 3,-43 4,-15 9,-27 17,-35l0 0c7,-8 18,-14 32,-18l1 0c11,-3 26,-4 42,-4l479 0c14,0 26,1 35,3 14,4 23,10 29,19l0 0c8,12 12,34 12,66l0 1524c0,62 8,108 24,138 14,24 34,37 61,37 24,0 45,-5 62,-15 16,-9 29,-22 41,-39l0 -1425c0,-14 -4,-26 -10,-36 -7,-11 -17,-21 -32,-29l0 0c-11,-6 -20,-13 -27,-20 -8,-8 -14,-17 -17,-27l0 0c-2,-8 -4,-23 -5,-45 -1,-21 -1,-49 -1,-82 0,-22 7,-40 22,-52 13,-12 32,-17 56,-17l506 0c29,0 48,6 58,18l0 0c6,7 9,17 11,30 1,9 2,21 2,35l0 1775c0,24 9,40 27,48l1 1c21,12 37,27 48,47 11,19 16,41 16,67 0,31 -1,55 -2,74 -1,21 -4,35 -8,43l-1 1c-6,10 -16,16 -31,20l0 0c-10,3 -23,4 -39,4l-471 0c-16,0 -31,-2 -44,-5l0 0c-14,-4 -26,-10 -35,-18 -9,-9 -15,-22 -19,-38l0 0c-4,-14 -5,-31 -5,-51l0 -38 0 -17c-152,126 -283,189 -394,189 -51,0 -98,-9 -141,-26l0 0c-43,-18 -82,-44 -116,-79 -34,-36 -59,-87 -76,-154 -16,-65 -24,-145 -24,-240l0 -1410zm648 1536c56,0 99,-24 128,-72l0 -1432c0,-37 -18,-66 -55,-86 -18,-11 -28,-22 -32,-34 -4,-11 -5,-51 -5,-119 0,-30 17,-44 53,-44l506 0c21,0 34,3 39,9 5,6 7,23 7,49l0 1775c0,34 14,58 41,71 34,18 51,49 51,92 0,62 -2,96 -7,105 -5,8 -21,12 -49,12l-471 0c-29,0 -50,-5 -61,-16 -12,-11 -17,-35 -17,-71l0 -38c0,-41 -1,-65 -2,-70 -164,145 -303,217 -417,217 -96,0 -176,-33 -239,-98 -62,-64 -93,-190 -93,-376l0 -1426c-13,-6 -23,-10 -30,-14 -24,-11 -40,-22 -46,-33 -7,-10 -10,-33 -10,-67 0,-18 0,-34 -1,-46 0,-31 4,-51 13,-61 8,-10 28,-14 57,-14l479 0c24,0 38,3 43,11 5,7 8,24 8,52l0 1524c0,133 37,200 110,200z"/>
  </g>
  <g>
   <path id="18" class="fil0" d="M14402 1670l0 -271c0,-46 -18,-70 -56,-73 -20,-1 -32,-6 -39,-15 -6,-8 -9,-26 -9,-53l0 -61c0,-23 3,-38 10,-43 7,-6 23,-9 47,-9l496 0c27,0 45,5 53,14 8,9 12,31 12,64l0 2150c0,46 23,76 70,92 25,7 37,23 37,48l0 78c0,34 -14,51 -44,51l-541 0c-18,0 -28,-3 -32,-10 -3,-7 -5,-34 -5,-83 0,-9 0,-23 1,-42 -112,105 -217,157 -314,157 -327,0 -490,-334 -490,-1001 0,-475 43,-786 131,-934 87,-149 200,-223 341,-223 107,0 218,55 332,164zm0 174c-47,-29 -86,-43 -116,-43 -34,0 -62,16 -83,49 -21,32 -32,69 -32,109l0 1277c0,39 10,71 30,97 19,26 44,40 74,40 28,0 56,-12 85,-37 28,-24 42,-47 42,-68l0 -1424z"/>
   <path id="19" class="fil1" d="M14377 1614l0 -215c0,-17 -3,-30 -8,-38 -5,-6 -13,-9 -25,-10l0 0c-12,-1 -22,-3 -31,-6 -11,-4 -19,-11 -26,-19l0 0c-5,-8 -9,-18 -11,-30 -2,-11 -3,-23 -3,-38l0 -61c0,-13 1,-24 3,-33 3,-13 8,-23 16,-29 7,-6 16,-10 29,-12l0 0c9,-2 21,-3 34,-3l496 0c15,0 29,2 40,4 14,4 24,10 32,18l0 1c7,8 12,19 14,35 3,12 4,27 4,45l0 2150c0,17 4,31 12,42 9,11 22,20 41,26l0 0c17,5 31,14 40,26 10,12 14,28 14,46l0 78c0,23 -5,42 -17,55 -13,14 -30,21 -52,21l-541 0c-11,0 -21,-1 -29,-4 -11,-3 -20,-10 -25,-19l-1 -2c-2,-6 -5,-18 -6,-36 0,-11 -1,-25 -1,-42 -43,35 -85,63 -125,83 -56,28 -110,42 -163,42 -343,0 -515,-342 -515,-1026 0,-238 11,-436 33,-593 22,-159 56,-277 101,-354 46,-77 98,-136 159,-175 61,-40 129,-60 204,-60 57,0 115,15 174,44 44,21 89,51 133,89zm25 56l0 -271c0,-46 -18,-70 -56,-73 -20,-1 -32,-6 -39,-15 -6,-8 -9,-26 -9,-53l0 -61c0,-23 3,-38 10,-43 7,-6 23,-9 47,-9l496 0c27,0 45,5 53,14 8,9 12,31 12,64l0 2150c0,46 23,76 70,92 25,7 37,23 37,48l0 78c0,34 -14,51 -44,51l-541 0c-18,0 -28,-3 -32,-10 -3,-7 -5,-34 -5,-83 0,-9 0,-23 1,-42 -112,105 -217,157 -314,157 -327,0 -490,-334 -490,-1001 0,-475 43,-786 131,-934 87,-149 200,-223 341,-223 107,0 218,55 332,164zm0 174c-47,-29 -86,-43 -116,-43 -34,0 -62,16 -83,49 -21,32 -32,69 -32,109l0 1277c0,39 10,71 30,97 19,26 44,40 74,40 28,0 56,-12 85,-37 28,-24 42,-47 42,-68l0 -1424zm-25 15c-17,-11 -33,-18 -48,-24 -16,-6 -31,-9 -43,-9 -13,0 -24,3 -34,9 -10,6 -20,15 -28,28l0 0c-10,15 -17,30 -21,45 -5,16 -7,33 -7,51l0 1277c0,17 2,32 6,46l0 0c4,13 10,25 19,36l0 0c7,10 16,18 25,23l0 0c8,4 18,7 29,7 11,0 21,-3 32,-7 12,-5 24,-13 36,-24l0 0c13,-10 22,-20 28,-29 4,-8 6,-14 6,-20l0 -1409z"/>
  </g>
  <g>
   <path id="20" class="fil0" d="M15576 1088c117,0 175,39 175,118 0,62 -39,114 -117,157 -77,43 -166,64 -265,64 -127,0 -191,-43 -191,-128 0,-68 45,-121 134,-156 90,-37 178,-55 264,-55zm-427 595l0 -103c0,-35 21,-51 61,-51l489 0c35,0 52,16 52,51l0 1779c0,25 2,41 5,47 3,8 12,15 27,21 36,14 54,47 54,96 0,57 -3,90 -8,102 -5,11 -21,17 -49,17l-594 0c-14,-2 -24,-8 -27,-20 -5,-10 -7,-39 -7,-85 0,-56 13,-88 39,-98 31,-11 47,-31 47,-62l0 -1541c0,-59 -21,-96 -62,-108 -18,-5 -27,-20 -27,-45z"/>
   <path id="21" class="fil1" d="M15576 1063c64,0 112,11 145,34l0 0c37,24 55,61 55,109 0,36 -11,70 -34,100 -22,29 -54,55 -96,79 -40,22 -84,39 -130,50 -47,11 -96,17 -147,17 -69,0 -121,-12 -157,-36 -40,-27 -59,-66 -59,-117 0,-79 50,-140 150,-180l0 0c46,-18 92,-32 137,-42 46,-9 92,-14 136,-14zm0 25c117,0 175,39 175,118 0,62 -39,114 -117,157 -77,43 -166,64 -265,64 -127,0 -191,-43 -191,-128 0,-68 45,-121 134,-156 90,-37 178,-55 264,-55zm-427 595l0 -103c0,-35 21,-51 61,-51l489 0c35,0 52,16 52,51l0 1779c0,25 2,41 5,47 3,8 12,15 27,21 36,14 54,47 54,96 0,57 -3,90 -8,102 -5,11 -21,17 -49,17l-594 0c-14,-2 -24,-8 -27,-20 -5,-10 -7,-39 -7,-85 0,-56 13,-88 39,-98 31,-11 47,-31 47,-62l0 -1541c0,-59 -21,-96 -62,-108 -18,-5 -27,-20 -27,-45zm-25 0l0 -103c0,-25 8,-44 25,-58 15,-12 35,-18 61,-18l489 0c24,0 43,6 57,19 13,14 20,33 20,57l0 1779c0,12 0,21 1,28 1,5 1,8 2,9l0 1 0 1 1 0c0,-1 0,-1 0,-1 3,2 7,5 12,7l0 0c24,9 41,25 53,45 11,20 17,45 17,74 0,28 -1,51 -2,69 -2,20 -4,34 -8,42l0 2c-6,12 -16,20 -31,25 -11,4 -24,6 -41,6l-594 0 -2 0 -2 0c-11,-2 -20,-6 -28,-11 -9,-7 -15,-15 -19,-26l0 0c-3,-7 -5,-19 -6,-35 -1,-15 -2,-35 -2,-58 0,-31 4,-56 12,-75l0 -1c9,-23 23,-38 43,-45l1 0c10,-4 18,-9 23,-16l0 0c5,-5 7,-13 7,-23l0 -1541c0,-25 -4,-45 -12,-59 -7,-12 -18,-21 -32,-25l-1 0c-15,-5 -26,-13 -34,-26 -6,-12 -10,-26 -10,-43zm655 1715l0 0c1,1 1,0 1,0l-1 0z"/>
  </g>
  <g>
   <path id="22" class="fil0" d="M16652 1506c194,0 356,88 486,261 130,174 195,432 195,775 0,370 -66,649 -198,838 -132,190 -296,284 -493,284 -137,0 -255,-43 -355,-130 -100,-86 -178,-202 -232,-347 -54,-144 -81,-342 -81,-592 0,-359 62,-629 186,-813 125,-184 289,-276 492,-276zm111 389c0,-128 -37,-192 -111,-192 -80,0 -120,78 -120,235l0 1286c0,156 36,234 109,234 81,0 122,-78 122,-234l0 -1329z"/>
   <path id="23" class="fil1" d="M16652 1481c101,0 194,23 279,69 84,45 160,112 227,202l0 0c67,90 118,201 151,333 33,131 49,284 49,457 0,375 -67,659 -202,852l0 0c-68,98 -145,171 -231,221 -86,49 -181,74 -283,74 -71,0 -138,-11 -200,-34 -62,-23 -119,-57 -172,-102 -52,-45 -98,-97 -137,-157l0 0c-40,-59 -73,-126 -101,-200l0 0c-28,-74 -49,-161 -62,-261 -14,-101 -21,-214 -21,-340 0,-181 16,-340 47,-478 32,-138 80,-255 144,-349l0 0c64,-95 139,-167 225,-214 85,-49 181,-73 287,-73zm0 25c194,0 356,88 486,261 130,174 195,432 195,775 0,370 -66,649 -198,838 -132,190 -296,284 -493,284 -137,0 -255,-43 -355,-130 -100,-86 -178,-202 -232,-347 -54,-144 -81,-342 -81,-592 0,-359 62,-629 186,-813 125,-184 289,-276 492,-276zm-11 1952c81,0 122,-78 122,-234l0 -1329c0,-128 -37,-192 -111,-192 -80,0 -120,78 -120,235l0 1286c0,156 36,234 109,234zm97 -1563c0,-60 -8,-104 -24,-132 -14,-23 -35,-35 -62,-35 -30,0 -53,15 -68,45 -18,35 -27,90 -27,165l0 1286c0,139 28,209 84,209 31,0 54,-15 69,-45 19,-35 28,-90 28,-164l0 -1329z"/>
  </g>
  <g>
   <path id="24" class="fil0" d="M9203 3120l-378 0 -18 139c0,3 -1,7 -3,14 -8,29 -13,54 -13,78 0,36 24,67 71,92 25,13 40,27 46,41 6,14 9,37 9,70 0,41 -2,66 -7,75 -4,9 -15,13 -32,13l-400 0c-22,0 -33,-23 -33,-70 0,-55 18,-101 54,-135 34,-31 53,-65 58,-100l281 -1784c5,-27 8,-51 8,-71 0,-31 -23,-59 -66,-83 -20,-12 -31,-39 -31,-81 0,-55 4,-90 10,-103 5,-13 22,-19 48,-19l580 0c35,0 60,16 74,50 14,33 28,105 43,218 6,43 12,86 18,129l249 1665c12,81 41,143 87,185 13,11 21,20 25,27 4,6 6,26 6,60 0,51 -4,83 -11,94 -7,12 -22,18 -45,18l-672 0c-20,0 -30,-19 -30,-57 0,-49 3,-80 8,-91 5,-13 20,-27 44,-43 36,-23 54,-51 54,-85 0,-35 -11,-117 -34,-246zm-182 -1352l-171 1179 336 0 -165 -1179z"/>
   <path id="25" class="fil1" d="M9182 3145l-336 0 -14 115c0,2 -1,6 -2,10 0,3 -1,6 -2,9l0 0c-4,14 -7,27 -9,39 -2,11 -3,22 -3,33 0,12 5,24 13,35 9,13 24,24 44,35l0 0c14,7 26,15 35,23 11,10 18,20 23,30l0 1c4,9 7,20 9,34l0 0c1,13 2,28 2,45 0,21 0,39 -2,52 -1,16 -4,27 -8,35 -5,10 -13,17 -24,21 -9,3 -19,5 -30,5l-400 0c-21,0 -37,-11 -47,-32 -7,-15 -11,-36 -11,-63 0,-31 5,-59 16,-85 10,-25 25,-48 46,-68l0 0c15,-14 27,-28 35,-43 8,-14 13,-28 15,-42l0 -1 281 -1784 0 0c3,-13 5,-26 6,-37 1,-10 2,-21 2,-30 0,-10 -4,-20 -11,-29l0 0c-9,-11 -23,-22 -42,-33l-1 0c-15,-9 -26,-23 -33,-42 -6,-16 -10,-36 -10,-60 0,-27 1,-51 3,-69 2,-20 5,-34 9,-44l0 0c5,-12 16,-22 30,-27l0 0c11,-5 25,-7 41,-7l580 0c22,0 42,5 59,16 16,12 29,28 38,49l0 0c8,19 16,47 23,84 7,37 14,83 22,141l0 0c2,19 5,41 8,64 3,16 6,40 10,64l249 1665c5,39 15,72 28,101 13,27 30,50 50,69 7,6 13,12 17,17 6,5 10,11 13,16l1 1c3,6 6,16 7,30 1,11 2,25 2,42 0,26 -1,48 -3,64 -2,20 -6,34 -11,43l0 0c-7,11 -16,19 -29,24 -11,4 -24,6 -38,6l-672 0c-20,0 -35,-9 -44,-28 -7,-13 -11,-31 -11,-54 0,-25 1,-46 2,-62 2,-17 4,-30 8,-39l0 0c4,-9 11,-19 21,-28 8,-8 19,-17 32,-26l1 -1c14,-9 25,-19 32,-30 7,-10 10,-21 10,-33 0,-17 -3,-45 -8,-85 -5,-35 -12,-80 -22,-136zm21 -25l-378 0 -18 139c0,3 -1,7 -3,14 -8,29 -13,54 -13,78 0,36 24,67 71,92 25,13 40,27 46,41 6,14 9,37 9,70 0,41 -2,66 -7,75 -4,9 -15,13 -32,13l-400 0c-22,0 -33,-23 -33,-70 0,-55 18,-101 54,-135 34,-31 53,-65 58,-100l281 -1784c5,-27 8,-51 8,-71 0,-31 -23,-59 -66,-83 -20,-12 -31,-39 -31,-81 0,-55 4,-90 10,-103 5,-13 22,-19 48,-19l580 0c35,0 60,16 74,50 14,33 28,105 43,218 6,43 12,86 18,129l249 1665c12,81 41,143 87,185 13,11 21,20 25,27 4,6 6,26 6,60 0,51 -4,83 -11,94 -7,12 -22,18 -45,18l-672 0c-20,0 -30,-19 -30,-57 0,-49 3,-80 8,-91 5,-13 20,-27 44,-43 36,-23 54,-51 54,-85 0,-35 -11,-117 -34,-246zm-182 -1352l-171 1179 336 0 -165 -1179zm0 177l-142 977 278 0 -136 -977z"/>
  </g>
  <path class="fil2 str0" d="M8761 1142c-67,-35 -94,-89 -174,-99 -86,59 -44,113 6,166 227,244 726,401 1061,301 187,-56 129,-177 -10,-165 -35,3 -81,20 -104,20 58,-187 88,-377 165,-560 27,-63 106,-107 -56,-181 -190,-86 -446,-192 -657,-145 -44,9 -71,25 -76,85 -8,100 -122,443 -155,578z"/>
 </g>
</svg>
